<svg width="412" height="190" viewBox="0 0 412 190" fill="none" xmlns="http://www.w3.org/2000/svg">
<g filter="url(#filter0_i_16_225)">
<path fill-rule="evenodd" clip-rule="evenodd" d="M280 13.4694C311.891 -14.2258 325.118 4.5653 329.728 35.7058C336.805 28.3756 344.44 21.0811 352.665 13.9387C408.53 -34.5754 407.121 59.5544 402.453 112.837C408.515 120.486 412 129.436 412 139C412 167.167 381.779 190 344.5 190C309.471 190 81.1337 177.786 53.6961 152.944C27.8515 139.11 -3.10765 82.9396 0.507896 60.6253C0.174054 59.2754 0 57.8867 0 56.4694C0 43.2145 15.2223 32.4694 34 32.4694C51.9293 32.4694 66.6173 42.2656 67.9079 54.689C68.9661 54.7351 70.0231 54.7804 71.0786 54.8248C72.2758 42.337 87.0054 32.4694 105 32.4694C123.778 32.4694 139 43.2145 139 56.4694L139 56.5494L138.999 56.6337C176.204 57.074 210.132 56.6038 238.651 55.7962C250.378 41.6804 264.086 27.2899 280 13.4694Z" fill="#43BC4F"/>
</g>
<ellipse cx="286" cy="51" rx="28" ry="27" fill="white"/>
<ellipse cx="286" cy="51" rx="10" ry="15" fill="black"/>
<circle cx="281" cy="41" r="5" fill="white"/>
<ellipse cx="368" cy="57" rx="28" ry="27" fill="white"/>
<ellipse cx="368" cy="57" rx="10" ry="15" fill="black"/>
<circle cx="363" cy="47" r="5" fill="white"/>
<ellipse cx="29.5" cy="55" rx="14.5" ry="9" fill="#25612B"/>
<ellipse cx="100.5" cy="55" rx="14.5" ry="9" fill="#25612B"/>
<path d="M162.541 160.103L145.143 137.024L169.267 131.995L162.541 160.103Z" fill="white"/>
<path d="M110.888 149.369L108.487 120.567L131.575 129.185L110.888 149.369Z" fill="white"/>
<path d="M85.2939 138.075L78.786 109.915L102.871 115.132L85.2939 138.075Z" fill="white"/>
<path d="M193.919 154.989L188.034 126.693L211.998 132.439L193.919 154.989Z" fill="white"/>
<path d="M246.536 169.4L231.935 144.458L256.48 142.263L246.536 169.4Z" fill="white"/>
<path d="M294.75 157.099L271.773 139.565L293.649 128.218L294.75 157.099Z" fill="white"/>
<path d="M48.1159 139.186L31.2963 115.682L55.5385 111.253L48.1159 139.186Z" fill="white"/>
<path d="M26 119C58.2036 109.466 79.7964 109.466 112 119C126.752 123.367 132.69 133.483 148 135C163.986 136.583 171.938 125.675 188 125.406C211.783 125.008 222.26 145.478 246 144C265.917 142.76 293.597 125.406 293.597 125.406" stroke="#277433" stroke-width="5" stroke-linecap="round"/>
<defs>
<filter id="filter0_i_16_225" x="-15" y="-15" width="427" height="205" filterUnits="userSpaceOnUse" color-interpolation-filters="sRGB">
<feFlood flood-opacity="0" result="BackgroundImageFix"/>
<feBlend mode="normal" in="SourceGraphic" in2="BackgroundImageFix" result="shape"/>
<feColorMatrix in="SourceAlpha" type="matrix" values="0 0 0 0 0 0 0 0 0 0 0 0 0 0 0 0 0 0 127 0" result="hardAlpha"/>
<feOffset dx="-15" dy="-15"/>
<feGaussianBlur stdDeviation="22.5"/>
<feComposite in2="hardAlpha" operator="arithmetic" k2="-1" k3="1"/>
<feColorMatrix type="matrix" values="0 0 0 0 0 0 0 0 0 0 0 0 0 0 0 0 0 0 0.25 0"/>
<feBlend mode="normal" in2="shape" result="effect1_innerShadow_16_225"/>
</filter>
</defs>
</svg>
