<svg width="350" height="350" viewBox="0 0 350 350" fill="none" xmlns="http://www.w3.org/2000/svg">
<defs>
  <filter id="neonGlow" x="-50%" y="-50%" width="200%" height="200%">
    <feGaussianBlur stdDeviation="8" result="coloredBlur"/>
    <feMerge>
      <feMergeNode in="coloredBlur"/>
      <feMergeNode in="SourceGraphic"/>
    </feMerge>
  </filter>
  <linearGradient id="cookieGradient" x1="0%" y1="0%" x2="100%" y2="100%">
    <stop offset="0%" style="stop-color:#ff2a6d;stop-opacity:1" />
    <stop offset="50%" style="stop-color:#d4145a;stop-opacity:1" />
    <stop offset="100%" style="stop-color:#ff2a6d;stop-opacity:1" />
  </linearGradient>
  <filter id="innerShadow" x="-50%" y="-50%" width="200%" height="200%">
    <feGaussianBlur in="SourceAlpha" stdDeviation="15" result="blur"/>
    <feOffset dx="0" dy="4"/>
    <feComposite in2="SourceAlpha" operator="arithmetic" k2="-1" k3="1"/>
    <feColorMatrix type="matrix" values="0 0 0 0 0.8 0 0 0 0 0.1 0 0 0 0 0.3 0 0 0 0.6 0"/>
    <feBlend mode="normal" in2="SourceGraphic"/>
  </filter>
</defs>
<g filter="url(#neonGlow)">
  <circle cx="175" cy="175" r="166" fill="url(#cookieGradient)" stroke="#05d9e8" stroke-width="8"/>
</g>
<!-- Chocolate chips with neon cyan glow -->
<circle cx="68" cy="116" r="20" fill="#0a0a0f" stroke="#05d9e8" stroke-width="4"/>
<circle cx="68" cy="216" r="20" fill="#0a0a0f" stroke="#05d9e8" stroke-width="4"/>
<circle cx="172" cy="201" r="20" fill="#0a0a0f" stroke="#05d9e8" stroke-width="4"/>
<circle cx="157" cy="301" r="20" fill="#0a0a0f" stroke="#05d9e8" stroke-width="4"/>
<circle cx="257" cy="246" r="20" fill="#0a0a0f" stroke="#05d9e8" stroke-width="4"/>
<circle cx="160" cy="106" r="20" fill="#0a0a0f" stroke="#05d9e8" stroke-width="4"/>
<circle cx="287" cy="124" r="20" fill="#0a0a0f" stroke="#05d9e8" stroke-width="4"/>
<circle cx="212" cy="56" r="20" fill="#0a0a0f" stroke="#05d9e8" stroke-width="4"/>
<!-- Crumbs as pixel-like squares -->
<rect x="78" y="50" width="12" height="4" fill="#05d9e8"/>
<rect x="104" y="162" width="12" height="4" fill="#05d9e8"/>
<rect x="68" y="160" width="12" height="4" fill="#05d9e8"/>
<rect x="107" y="228" width="12" height="4" fill="#05d9e8"/>
<rect x="63" y="260" width="12" height="4" fill="#05d9e8"/>
<rect x="190" y="244" width="12" height="4" fill="#05d9e8"/>
<rect x="205" y="307" width="12" height="4" fill="#05d9e8"/>
<rect x="102" y="77" width="12" height="4" fill="#05d9e8"/>
<rect x="224" y="195" width="12" height="4" fill="#05d9e8"/>
<rect x="253" y="150" width="12" height="4" fill="#05d9e8"/>
<rect x="208" y="105" width="12" height="4" fill="#05d9e8"/>
<rect x="189" y="144" width="12" height="4" fill="#05d9e8"/>
<rect x="295" y="217" width="12" height="4" fill="#05d9e8"/>
<rect x="300" y="167" width="12" height="4" fill="#05d9e8"/>
<rect x="253" y="72" width="12" height="4" fill="#05d9e8"/>
<rect x="155" y="48" width="12" height="4" fill="#05d9e8"/>
<rect x="25" y="150" width="8" height="4" fill="#05d9e8"/>
</svg>
