<svg width="350" height="350" viewBox="0 0 350 350" fill="none" xmlns="http://www.w3.org/2000/svg">
<mask id="path-1-inside-1_3_30" fill="white">
<path d="M350 175C350 271.65 271.65 350 175 350C78.3502 350 0 271.65 0 175C0 78.3502 78.3502 0 175 0C271.65 0 350 78.3502 350 175Z"/>
</mask>
<g filter="url(#filter0_i_3_30)">
<path d="M350 175C350 271.65 271.65 350 175 350C78.3502 350 0 271.65 0 175C0 78.3502 78.3502 0 175 0C271.65 0 350 78.3502 350 175Z" fill="#F5BD68"/>
</g>
<path d="M341 175C341 266.679 266.679 341 175 341V359C276.62 359 359 276.62 359 175H341ZM175 341C83.3207 341 9 266.679 9 175H-9C-9 276.62 73.3796 359 175 359V341ZM9 175C9 83.3207 83.3207 9 175 9V-9C73.3796 -9 -9 73.3796 -9 175H9ZM175 9C266.679 9 341 83.3207 341 175H359C359 73.3796 276.62 -9 175 -9V9Z" fill="black" mask="url(#path-1-inside-1_3_30)"/>
<line x1="81.9418" y1="54.8098" x2="91.8063" y2="52.5298" stroke="black" stroke-width="10" stroke-linecap="round"/>
<line x1="107.803" y1="166.192" x2="114.919" y2="173.395" stroke="black" stroke-width="10" stroke-linecap="round"/>
<line x1="71.7456" y1="164.576" x2="81.6101" y2="162.296" stroke="black" stroke-width="10" stroke-linecap="round"/>
<line x1="110.729" y1="232.55" x2="118.649" y2="226.242" stroke="black" stroke-width="10" stroke-linecap="round"/>
<line x1="66.7456" y1="264.576" x2="76.6101" y2="262.296" stroke="black" stroke-width="10" stroke-linecap="round"/>
<line x1="193.533" y1="248.988" x2="203.163" y2="252.115" stroke="black" stroke-width="10" stroke-linecap="round"/>
<line x1="208.816" y1="311.966" x2="217.232" y2="306.337" stroke="black" stroke-width="10" stroke-linecap="round"/>
<line x1="105.597" y1="81.2365" x2="111.864" y2="89.1883" stroke="black" stroke-width="10" stroke-linecap="round"/>
<line x1="227.746" y1="199.576" x2="237.61" y2="197.296" stroke="black" stroke-width="10" stroke-linecap="round"/>
<line x1="28.5519" y1="154.636" x2="25.5159" y2="144.977" stroke="black" stroke-width="10" stroke-linecap="round"/>
<line x1="81.9418" y1="54.8098" x2="91.8063" y2="52.5298" stroke="black" stroke-width="10" stroke-linecap="round"/>
<line x1="107.803" y1="166.192" x2="114.919" y2="173.395" stroke="black" stroke-width="10" stroke-linecap="round"/>
<line x1="257.071" y1="154.043" x2="264.186" y2="161.246" stroke="black" stroke-width="10" stroke-linecap="round"/>
<line x1="212.071" y1="109.043" x2="219.186" y2="116.246" stroke="black" stroke-width="10" stroke-linecap="round"/>
<line x1="71.7456" y1="164.576" x2="81.6101" y2="162.296" stroke="black" stroke-width="10" stroke-linecap="round"/>
<line x1="110.729" y1="232.55" x2="118.649" y2="226.242" stroke="black" stroke-width="10" stroke-linecap="round"/>
<line x1="66.7456" y1="264.576" x2="76.6101" y2="262.296" stroke="black" stroke-width="10" stroke-linecap="round"/>
<line x1="193.533" y1="248.988" x2="203.163" y2="252.115" stroke="black" stroke-width="10" stroke-linecap="round"/>
<line x1="192.3" y1="148.789" x2="201.929" y2="151.916" stroke="black" stroke-width="10" stroke-linecap="round"/>
<line x1="298.3" y1="221.789" x2="307.929" y2="224.916" stroke="black" stroke-width="10" stroke-linecap="round"/>
<line x1="208.816" y1="311.966" x2="217.232" y2="306.337" stroke="black" stroke-width="10" stroke-linecap="round"/>
<line x1="303.376" y1="171.253" x2="311.792" y2="165.624" stroke="black" stroke-width="10" stroke-linecap="round"/>
<line x1="256.376" y1="76.2527" x2="264.792" y2="70.6238" stroke="black" stroke-width="10" stroke-linecap="round"/>
<line x1="105.597" y1="81.2365" x2="111.864" y2="89.1883" stroke="black" stroke-width="10" stroke-linecap="round"/>
<line x1="227.746" y1="199.576" x2="237.61" y2="197.296" stroke="black" stroke-width="10" stroke-linecap="round"/>
<line x1="158.746" y1="52.5344" x2="168.61" y2="50.2544" stroke="black" stroke-width="10" stroke-linecap="round"/>
<line x1="28.5519" y1="154.636" x2="25.5159" y2="144.977" stroke="black" stroke-width="10" stroke-linecap="round"/>
<circle cx="68" cy="116.041" r="20" fill="#87460B" stroke="black" stroke-width="10"/>
<circle cx="68" cy="216.041" r="20" fill="#87460B" stroke="black" stroke-width="10"/>
<circle cx="172" cy="201.041" r="20" fill="#87460B" stroke="black" stroke-width="10"/>
<circle cx="157" cy="301.041" r="20" fill="#87460B" stroke="black" stroke-width="10"/>
<circle cx="257" cy="246.041" r="20" fill="#87460B" stroke="black" stroke-width="10"/>
<circle cx="68" cy="116.041" r="20" fill="#87460B" stroke="black" stroke-width="10"/>
<circle cx="68" cy="216.041" r="20" fill="#87460B" stroke="black" stroke-width="10"/>
<circle cx="172" cy="201.041" r="20" fill="#87460B" stroke="black" stroke-width="10"/>
<circle cx="157" cy="301.041" r="20" fill="#87460B" stroke="black" stroke-width="10"/>
<circle cx="160" cy="106" r="20" fill="#87460B" stroke="black" stroke-width="10"/>
<circle cx="287" cy="124" r="20" fill="#87460B" stroke="black" stroke-width="10"/>
<circle cx="212" cy="56" r="20" fill="#87460B" stroke="black" stroke-width="10"/>
<circle cx="257" cy="246.041" r="20" fill="#87460B" stroke="black" stroke-width="10"/>
<defs>
<filter id="filter0_i_3_30" x="0" y="0" width="350" height="354" filterUnits="userSpaceOnUse" color-interpolation-filters="sRGB">
<feFlood flood-opacity="0" result="BackgroundImageFix"/>
<feBlend mode="normal" in="SourceGraphic" in2="BackgroundImageFix" result="shape"/>
<feColorMatrix in="SourceAlpha" type="matrix" values="0 0 0 0 0 0 0 0 0 0 0 0 0 0 0 0 0 0 127 0" result="hardAlpha"/>
<feOffset dy="4"/>
<feGaussianBlur stdDeviation="22.5"/>
<feComposite in2="hardAlpha" operator="arithmetic" k2="-1" k3="1"/>
<feColorMatrix type="matrix" values="0 0 0 0 0.529167 0 0 0 0 0.275784 0 0 0 0 0.0418923 0 0 0 1 0"/>
<feBlend mode="normal" in2="shape" result="effect1_innerShadow_3_30"/>
</filter>
</defs>
</svg>
