<svg width="693" height="514" viewBox="0 0 693 514" fill="none" xmlns="http://www.w3.org/2000/svg">
<defs>
  <filter id="neonGlow" x="-50%" y="-50%" width="200%" height="200%">
    <feGaussianBlur stdDeviation="6" result="coloredBlur"/>
    <feMerge>
      <feMergeNode in="coloredBlur"/>
      <feMergeNode in="SourceGraphic"/>
    </feMerge>
  </filter>
  <linearGradient id="bodyGradient" x1="0%" y1="0%" x2="100%" y2="100%">
    <stop offset="0%" style="stop-color:#05d9e8;stop-opacity:1" />
    <stop offset="50%" style="stop-color:#0892d0;stop-opacity:1" />
    <stop offset="100%" style="stop-color:#05d9e8;stop-opacity:1" />
  </linearGradient>
  <linearGradient id="bellyGradient" x1="0%" y1="0%" x2="100%" y2="100%">
    <stop offset="0%" style="stop-color:#1a1a2e;stop-opacity:1" />
    <stop offset="100%" style="stop-color:#0a0a0f;stop-opacity:1" />
  </linearGradient>
  <linearGradient id="cookieGradient" x1="0%" y1="0%" x2="100%" y2="100%">
    <stop offset="0%" style="stop-color:#ff2a6d;stop-opacity:1" />
    <stop offset="50%" style="stop-color:#d4145a;stop-opacity:1" />
    <stop offset="100%" style="stop-color:#ff2a6d;stop-opacity:1" />
  </linearGradient>
  <linearGradient id="scalesGradient" x1="0%" y1="0%" x2="100%" y2="100%">
    <stop offset="0%" style="stop-color:#0892d0;stop-opacity:1" />
    <stop offset="100%" style="stop-color:#05d9e8;stop-opacity:1" />
  </linearGradient>
</defs>

<!-- Tail spikes -->
<path d="M646.756 419.294L648.958 458.732L617.739 446.095L646.756 419.294Z" fill="url(#scalesGradient)"/>
<path d="M624.017 409.319L626.219 448.758L595 436.12L624.017 409.319Z" fill="url(#scalesGradient)"/>
<path d="M593.017 401.319L595.219 440.758L564 428.12L593.017 401.319Z" fill="url(#scalesGradient)"/>
<path d="M562.017 393.319L564.219 432.758L533 420.12L562.017 393.319Z" fill="url(#scalesGradient)"/>
<path d="M527.017 382.319L529.219 421.758L498 409.12L527.017 382.319Z" fill="url(#scalesGradient)"/>
<path d="M500.017 373.319L502.219 412.758L471 400.12L500.017 373.319Z" fill="url(#scalesGradient)"/>

<!-- Tail -->
<g filter="url(#neonGlow)">
  <path fill-rule="evenodd" clip-rule="evenodd" d="M554.051 416.179C634.349 425.956 693.485 447.071 692.076 467.305C690.449 490.666 608.736 504.006 509.565 497.101C438.555 492.156 377.848 478.172 349.694 462.053C307.731 446.946 281.816 429.322 284.161 414.439C288.116 389.344 370.929 381.546 469.128 397.022C500.246 401.926 529.175 408.579 554.051 416.179Z" fill="url(#bodyGradient)" stroke="#ff2a6d" stroke-width="2"/>
</g>

<!-- Main body -->
<g filter="url(#neonGlow)">
  <path d="M473 325C513 490 403.47 498 314 498C224.53 498 127 485 152 325C152 212 224.53 161 314 161C403.47 161 473 229.455 473 325Z" fill="url(#bodyGradient)" stroke="#ff2a6d" stroke-width="3"/>
</g>

<!-- Belly -->
<ellipse cx="313.5" cy="345" rx="129.5" ry="144" fill="url(#bellyGradient)" stroke="#05d9e8" stroke-width="2"/>

<!-- Head -->
<g filter="url(#neonGlow)">
  <path fill-rule="evenodd" clip-rule="evenodd" d="M280 13.4694C311.891 -14.2258 325.118 4.5653 329.728 35.7058C336.805 28.3756 344.44 21.0811 352.665 13.9387C408.53 -34.5754 407.121 59.5544 402.453 112.837C408.515 120.486 412 129.436 412 139C412 167.167 381.779 190 344.5 190C309.471 190 81.1337 177.786 53.6961 152.944C27.8515 139.11 -3.10765 82.9396 0.507896 60.6253C0.174054 59.2754 0 57.8867 0 56.4694C0 43.2145 15.2223 32.4694 34 32.4694C51.9293 32.4694 66.6173 42.2656 67.9079 54.689C68.9661 54.7351 70.0231 54.7804 71.0786 54.8248C72.2758 42.337 87.0054 32.4694 105 32.4694C123.778 32.4694 139 43.2145 139 56.4694L139 56.5494L138.999 56.6337C176.204 57.074 210.132 56.6038 238.651 55.7962C250.378 41.6804 264.086 27.2899 280 13.4694Z" fill="url(#bodyGradient)" stroke="#ff2a6d" stroke-width="3"/>
</g>

<!-- Eyes -->
<ellipse cx="286" cy="51" rx="28" ry="27" fill="#0a0a0f" stroke="#ff2a6d" stroke-width="3"/>
<rect x="276" y="36" width="20" height="30" fill="#ff2a6d" rx="2"/>
<rect x="278" y="38" width="8" height="8" fill="#ffffff"/>

<ellipse cx="368" cy="57" rx="28" ry="27" fill="#0a0a0f" stroke="#ff2a6d" stroke-width="3"/>
<rect x="358" y="42" width="20" height="30" fill="#ff2a6d" rx="2"/>
<rect x="360" y="44" width="8" height="8" fill="#ffffff"/>

<!-- Nostrils -->
<ellipse cx="29.5" cy="55" rx="14.5" ry="9" fill="#0a0a0f" stroke="#ff2a6d" stroke-width="2"/>
<ellipse cx="100.5" cy="55" rx="14.5" ry="9" fill="#0a0a0f" stroke="#ff2a6d" stroke-width="2"/>

<!-- Teeth -->
<g filter="url(#neonGlow)">
  <path d="M162.541 160.103L145.143 137.024L169.267 131.995L162.541 160.103Z" fill="#ffd700"/>
  <path d="M110.888 149.369L108.487 120.567L131.575 129.185L110.888 149.369Z" fill="#ffd700"/>
  <path d="M85.2939 138.075L78.786 109.915L102.871 115.132L85.2939 138.075Z" fill="#ffd700"/>
  <path d="M193.919 154.989L188.034 126.693L211.998 132.439L193.919 154.989Z" fill="#ffd700"/>
  <path d="M246.536 169.4L231.935 144.458L256.48 142.263L246.536 169.4Z" fill="#ffd700"/>
  <path d="M294.75 157.099L271.773 139.565L293.649 128.218L294.75 157.099Z" fill="#ffd700"/>
  <path d="M48.1159 139.186L31.2963 115.682L55.5385 111.253L48.1159 139.186Z" fill="#ffd700"/>
</g>

<!-- Mouth -->
<path d="M26 119C58.2036 109.466 79.7964 109.466 112 119C126.752 123.367 132.69 133.483 148 135C163.986 136.583 171.938 125.675 188 125.406C211.783 125.008 222.26 145.478 246 144C265.917 142.76 293.597 125.406 293.597 125.406" stroke="#ff2a6d" stroke-width="5" stroke-linecap="round"/>

<!-- Cookie in belly -->
<g filter="url(#neonGlow)">
  <circle cx="315" cy="320" r="95" fill="url(#cookieGradient)" stroke="#05d9e8" stroke-width="4"/>
</g>

<!-- Cookie chocolate chips -->
<circle cx="265" cy="280" r="14" fill="#0a0a0f" stroke="#05d9e8" stroke-width="3"/>
<circle cx="265" cy="345" r="14" fill="#0a0a0f" stroke="#05d9e8" stroke-width="3"/>
<circle cx="315" cy="335" r="14" fill="#0a0a0f" stroke="#05d9e8" stroke-width="3"/>
<circle cx="305" cy="395" r="14" fill="#0a0a0f" stroke="#05d9e8" stroke-width="3"/>
<circle cx="365" cy="365" r="14" fill="#0a0a0f" stroke="#05d9e8" stroke-width="3"/>
<circle cx="305" cy="275" r="14" fill="#0a0a0f" stroke="#05d9e8" stroke-width="3"/>
<circle cx="375" cy="290" r="14" fill="#0a0a0f" stroke="#05d9e8" stroke-width="3"/>
<circle cx="340" cy="250" r="14" fill="#0a0a0f" stroke="#05d9e8" stroke-width="3"/>

<!-- Cookie crumbs -->
<rect x="250" y="240" width="8" height="3" fill="#05d9e8"/>
<rect x="270" y="312" width="8" height="3" fill="#05d9e8"/>
<rect x="245" y="310" width="8" height="3" fill="#05d9e8"/>
<rect x="272" y="355" width="8" height="3" fill="#05d9e8"/>
<rect x="242" y="375" width="8" height="3" fill="#05d9e8"/>
<rect x="325" y="365" width="8" height="3" fill="#05d9e8"/>
<rect x="335" y="405" width="8" height="3" fill="#05d9e8"/>

<!-- Body spikes -->
<path d="M348.836 456.215L342.95 427.919L366.914 433.665L348.836 456.215Z" fill="url(#scalesGradient)"/>
<path d="M316.654 438.496L329.911 412.814L344.9 432.374L316.654 438.496Z" fill="url(#scalesGradient)"/>
<path d="M308.358 412.308L327.937 391.048L337.217 413.877L308.358 412.308Z" fill="url(#scalesGradient)"/>
<path d="M339.042 374.408L311.998 384.604L313.965 360.039L339.042 374.408Z" fill="url(#scalesGradient)"/>
<path d="M331.353 405.315L302.616 402.233L315.44 381.188L331.353 405.315Z" fill="url(#scalesGradient)"/>
<path d="M298.165 428.055L280.677 405.044L304.781 399.92L298.165 428.055Z" fill="url(#scalesGradient)"/>

<!-- Arms -->
<g filter="url(#neonGlow)">
  <path d="M463.5 287C455.227 327.699 470.098 350.775 435.088 389.482C400.078 428.188 355.759 445.15 336.098 427.367C316.438 409.584 328.881 363.79 363.891 325.084C398.902 286.378 473.037 240.084 463.5 287Z" fill="url(#bodyGradient)" stroke="#ff2a6d" stroke-width="2"/>
</g>
<g filter="url(#neonGlow)">
  <path d="M173.706 267.471C182.235 259.572 237.579 262.906 275 299.077C312.421 335.249 327.821 380.024 309.397 399.084C290.973 418.145 245.701 404.274 208.28 368.102C170.859 331.931 138.653 299.935 173.706 267.471Z" fill="url(#bodyGradient)" stroke="#ff2a6d" stroke-width="2"/>
</g>

<!-- Arm spikes -->
<path d="M135.493 377.455L171.831 392.943L146.676 415.339L135.493 377.455Z" fill="url(#scalesGradient)"/>
<path d="M242.77 373.295L238.515 412.566L209.773 395.008L242.77 373.295Z" fill="url(#scalesGradient)"/>
<path d="M189.893 355.449L208.025 390.542L174.368 391.77L189.893 355.449Z" fill="url(#scalesGradient)"/>
<path d="M383.577 380.62L419.915 396.108L394.76 418.504L383.577 380.62Z" fill="url(#scalesGradient)"/>
<path d="M490.854 376.461L486.599 415.731L457.857 398.174L490.854 376.461Z" fill="url(#scalesGradient)"/>
<path d="M437.977 358.614L456.109 393.707L422.452 394.935L437.977 358.614Z" fill="url(#scalesGradient)"/>

<!-- Feet -->
<g filter="url(#neonGlow)">
  <ellipse cx="193.5" cy="439.5" rx="53.5" ry="53.5" fill="url(#bodyGradient)" stroke="#ff2a6d" stroke-width="3"/>
  <ellipse cx="442.5" cy="444.5" rx="53.5" ry="53.5" fill="url(#bodyGradient)" stroke="#ff2a6d" stroke-width="3"/>
</g>
</svg>
