<svg width="263" height="284" viewBox="0 0 263 284" fill="none" xmlns="http://www.w3.org/2000/svg">
<ellipse cx="136" cy="172.5" rx="85" ry="111.5" fill="#D9D9D9"/>
<ellipse rx="15.6278" ry="20.5" transform="matrix(-1 0 0 1 49.6278 187.5)" fill="#D9D9D9"/>
<ellipse rx="15.6278" ry="20.5" transform="matrix(-1 0 0 1 225.628 187.5)" fill="#D9D9D9"/>
<ellipse cx="42" cy="140" rx="42" ry="40" fill="#D9D9D9"/>
<ellipse cx="72" cy="100" rx="42" ry="40" fill="#D9D9D9"/>
<ellipse cx="114" cy="70" rx="42" ry="40" fill="#D9D9D9"/>
<ellipse cx="164" cy="70" rx="42" ry="40" fill="#D9D9D9"/>
<ellipse cx="51" cy="88" rx="42" ry="40" fill="#D9D9D9"/>
<ellipse cx="93" cy="54" rx="42" ry="40" fill="#D9D9D9"/>
<ellipse cx="198" cy="101" rx="42" ry="40" fill="#D9D9D9"/>
<ellipse cx="135" cy="101" rx="42" ry="40" fill="#D9D9D9"/>
<ellipse cx="219" cy="140" rx="42" ry="40" fill="#D9D9D9"/>
<ellipse cx="146" cy="40" rx="42" ry="40" fill="#D9D9D9"/>
<ellipse cx="221" cy="101" rx="42" ry="40" fill="#D9D9D9"/>
<ellipse cx="198" cy="70" rx="42" ry="40" fill="#D9D9D9"/>
<ellipse cx="42" cy="140" rx="42" ry="40" fill="#D9D9D9"/>
<ellipse cx="127" cy="54" rx="42" ry="40" fill="#D9D9D9"/>
</svg>
